<svg width="400" height="100" viewBox="0 0 400 100" fill="none" xmlns="http://www.w3.org/2000/svg">
<path d="M0.456672 82.1917C9.13247 82.1917 23.7443 82.1917 38.8128 82.1917C38.8128 74.8857 38.8128 66.6666 39.2695 63.0136C42.4658 62.557 52.0549 62.557 56.1644 63.0136C56.1644 67.5798 56.1644 75.3424 56.1644 82.1917C73.9727 82.1917 89.9544 82.1917 94.9772 82.1917C95.4338 86.3013 95.4338 91.7807 94.9772 96.3469C85.3882 96.8035 13.6987 96.8035 0.913293 96.3469C5.07236e-05 92.2373 5.07236e-05 86.3013 0.456672 82.1917ZM6.39274 4.5661C16.895 4.10948 76.7124 4.10948 87.6713 4.5661C88.1279 8.67569 88.1279 15.525 87.6713 19.6346C79.9087 19.6346 31.5069 19.6346 23.2877 19.6346C23.2877 24.6574 23.2877 37.4428 23.2877 42.009C31.9635 42.009 81.7352 42.009 89.4978 42.009C89.9544 46.1186 89.9544 53.4245 89.4978 56.6209C80.3653 57.0775 16.895 57.0775 5.93612 56.6209C5.4795 43.8355 5.93612 16.8949 6.39274 4.5661Z" fill="#0067BC"/>
<path d="M103.197 2.28321C113.699 1.82659 147.032 1.82659 157.991 2.28321C158.448 6.3928 158.448 11.8722 157.991 15.9818C150.229 15.9818 127.854 15.9818 119.635 15.9818C119.635 21.0047 119.635 28.7672 119.635 33.3334C128.311 33.3334 154.338 33.3334 162.557 33.3334C163.014 37.443 163.014 43.8357 162.557 47.0321C153.425 47.4887 112.786 47.4887 103.197 47.0321C102.283 34.7033 102.283 15.0686 103.197 2.28321ZM106.85 57.0777C113.699 56.6211 185.388 56.6211 188.128 57.0777C188.585 65.7535 188.585 91.3243 188.128 99.5435C180.822 100 115.069 100.457 106.85 99.5435C106.393 87.2147 106.393 68.0366 106.85 57.0777ZM172.146 85.8448C172.146 82.6485 172.146 74.8859 172.146 71.233C166.21 70.7764 130.137 71.233 122.831 71.233C122.831 74.4293 122.375 81.7353 122.831 85.8448C127.854 85.8448 167.58 85.8448 172.146 85.8448ZM172.146 0.456724C175.343 0.000102572 184.475 0.000102572 188.585 0.456724C188.585 4.56631 188.585 10.5024 188.585 16.8951C192.694 16.8951 195.891 16.8951 198.174 16.8951C198.63 21.0047 198.63 27.3974 198.174 31.507C196.347 31.507 193.151 31.9636 188.585 31.9636C188.585 40.1827 188.585 47.4887 188.585 51.5983C185.388 52.0549 176.256 52.0549 172.146 51.5983C171.69 42.9225 171.69 8.6759 172.146 0.456724Z" fill="#0067BC"/>
<path d="M201.826 82.1917C210.502 82.1917 225.114 82.1917 240.639 82.1917C240.639 74.8857 240.639 66.6666 240.639 63.0136C243.835 62.557 253.424 62.557 257.534 63.0136C257.534 67.5798 257.534 75.3424 257.534 82.1917C275.342 82.1917 291.324 82.1917 296.347 82.1917C296.803 86.3013 296.803 91.7807 296.347 96.3469C286.758 96.8035 215.068 96.8035 202.283 96.3469C201.37 92.2373 201.37 86.3013 201.826 82.1917ZM207.762 4.5661C218.265 4.10948 278.082 4.10948 289.041 4.5661C289.498 8.67569 289.498 15.525 289.041 19.6346C281.278 19.6346 232.877 19.6346 224.657 19.6346C224.657 24.6574 224.657 37.4428 224.657 42.009C233.333 42.009 283.105 42.009 290.867 42.009C291.324 46.1186 291.324 53.4245 290.867 56.6209C281.735 57.0775 218.265 57.0775 207.306 56.6209C207.306 43.8355 207.306 16.8949 207.762 4.5661Z" fill="#0067BC"/>
<path d="M304.566 2.28321C315.068 1.82659 348.402 1.82659 359.361 2.28321C359.817 6.3928 359.817 11.8722 359.361 15.9818C351.598 15.9818 329.224 15.9818 321.004 15.9818C321.004 21.0047 321.004 28.7672 321.004 33.3334C329.68 33.3334 355.708 33.3334 363.927 33.3334C364.383 37.443 364.383 43.8357 363.927 47.0321C354.794 47.4887 314.612 47.4887 304.566 47.0321C304.109 34.7033 304.109 15.0686 304.566 2.28321ZM308.676 57.0777C315.525 56.6211 387.215 56.6211 389.954 57.0777C390.411 65.7535 390.411 91.3243 389.954 99.5435C382.648 100 316.895 100.457 308.676 99.5435C307.762 87.2147 308.219 68.0366 308.676 57.0777ZM373.973 85.8448C374.429 82.6485 374.429 74.8859 373.973 71.233C368.036 70.7764 331.963 71.233 324.657 71.233C324.201 74.4293 324.201 81.7353 324.657 85.8448C329.68 85.8448 369.406 85.8448 373.973 85.8448ZM373.516 0.456724C376.712 0.000102572 385.845 0.000102572 389.954 0.456724C389.954 4.56631 389.954 10.5024 389.954 16.8951C394.064 16.8951 397.26 16.8951 399.543 16.8951C400 21.0047 400 27.3974 399.543 31.507C397.717 31.507 394.52 31.9636 389.954 31.9636C389.954 40.1827 389.954 47.4887 389.498 51.5983C386.301 52.0549 377.169 52.0549 373.059 51.5983C373.059 42.9225 373.059 8.6759 373.516 0.456724Z" fill="#0067BC"/>
</svg>
